<svg xmlns="http://www.w3.org/2000/svg" viewBox="0 0 22.253 29.591" fill="#007E84"><path d="M17.104 12.55H6.412a.437.437 0 100 .873h10.693a.437.437 0 000-.873zm0 0M17.104 9.849H6.412a.437.437 0 100 .873h10.693a.437.437 0 000-.873zm0 0"/><path d="M21.816 15.661a.437.437 0 00.437-.437V7.935v-.393-.014-.027a2.963 2.963 0 00-1.053-2.44l-.678-.735V1.652A1.657 1.657 0 0018.866 0H1.658A1.657 1.657 0 000 1.652v10.742a.437.437 0 10.873 0V1.652a.783.783 0 01.785-.779h17.208a.783.783 0 01.785.779v1.726c-.076-.082-.145-.16-.209-.231a2.184 2.184 0 00-2.081-.967H4.085a1.613 1.613 0 00-1.612 1.611v20.123h-.815a.783.783 0 01-.785-.779v-8.741a.437.437 0 10-.873 0v8.741a1.657 1.657 0 001.658 1.652h.833a1.614 1.614 0 001.594 1.366h4.438l1.895 2.433.007.009a2.587 2.587 0 001.981 1h.076a2.357 2.357 0 001.83-1.012l1.888-2.43h4.44a1.613 1.613 0 001.613-1.61V17.4a.437.437 0 10-.874 0v7.146a.739.739 0 01-.739.736h-3.758l.264-.339a2.306 2.306 0 00.438-2.336 2.069 2.069 0 00-1.973-1.09h-.421V17.7a1.035 1.035 0 00-1.056-1.011H10.59A1.036 1.036 0 009.533 17.7v3.812h-.419a2.069 2.069 0 00-1.974 1.09 2.309 2.309 0 00.439 2.336l.263.339H4.085a.739.739 0 01-.739-.736V3.791a.74.74 0 01.739-.737h12.838v3.3a1.614 1.614 0 001.613 1.611h2.846v7.258a.437.437 0 00.434.438zM8.268 24.4a1.5 1.5 0 01-.333-1.436 1.345 1.345 0 011.212-.581h.823a.437.437 0 00.437-.437V17.7a.171.171 0 01.183-.137h3.544a.169.169 0 01.183.137v4.249a.437.437 0 00.437.437h.825a1.345 1.345 0 011.212.581 1.5 1.5 0 01-.333 1.435l-.682.875-.681.874-1.476 1.894-.01.014a1.473 1.473 0 01-1.154.655 1.705 1.705 0 01-1.35-.672L9.63 26.153l-.68-.873zm9.526-18.05V3.064c.438.042.572.19.995.662l.242.267 1.529 1.66c.583.632.751.894.8 1.439h-2.827a.739.739 0 01-.739-.737zm0 0"/><path d="M6.412 8.02h6.8a.437.437 0 000-.874h-6.8a.437.437 0 100 .874zm0 0"/></svg>
